<svg xmlns="http://www.w3.org/2000/svg" viewBox="0 0 652.07 526.52"><defs><style>.cls-1{fill:#3f51b5}.cls-2{fill:#ffd740}.cls-3{fill:#757de8}.cls-4{fill:#002984}.cls-5{fill:#ffab00}.cls-6{fill:#37474f}.cls-7{fill:#67daff}.cls-8{fill:#263238}</style></defs><title>Asset 2</title><g id="Layer_2" data-name="Layer 2"><g id="Layer_1-2" data-name="Layer 1"><path class="cls-1" d="M19.2 203.42l22.15-26.7L0 62.13 63.62 0l105.1 23.18h314.63l105.1-20.03 63.62 62.14-42.19 110.42 22.99 27.71-42.61 190.06-182.2 81.86v8.71l-82.03 41.96-82.02-43.4v-7.27L61.8 393.48 19.2 203.42z"/><path class="cls-2" d="M326.15 526.52l82.03-41.96V257.94L326.24 216l-82.12 42.41v224.71l82.03 43.4z"/><path class="cls-3" d="M632.98 203.5l-42.6 190.06-182.2 81.86 224.8-271.92z"/><path class="cls-4" d="M0 62.13L63.62 0l105.1 23.18L41.35 176.72 0 62.13z"/><path class="cls-1" d="M652.07 65.29L588.37.51 483.28 23.7l127.36 153.53 41.43-111.94z"/><path class="cls-4" d="M326.24 71.21l-157.42-47.5L19.3 203.95l224.81 271.92V258.43l82.11-42.42.02-144.8z"/><path class="cls-3" d="M633.08 203.5L483.56 23.26 326.24 71.21 633.08 203.5z"/><path class="cls-5" d="M326.23 216l-82.03 42.36v224.71l82.03 43.41V216z"/><path class="cls-3" d="M326.23 430.98l43.05-21.62-4.89-34.98h-75.73l-5.48 34.98 43.05 21.62z"/><path class="cls-1" d="M19.4 203.5L168.92 23.26l157.31 47.95L19.4 203.5z"/><path class="cls-4" d="M326.24 23.18H168.72l157.52 48.03V23.18z"/><path class="cls-1" d="M326.23 374.38h-37.57l-5.48 34.98 43.05 21.62v-56.6z"/><path class="cls-6" d="M526.29 229.13l-159.14.87-17.59 33.2-23.32-6.48-23.32 6.48-17.58-33.2-159.14-.82L83.47 232v19.17l18.71 3.11 24.33 89.07 73 13.92 80.37-11.13 22.74-65.07 23.58-6.6 23.58 6.6 22.74 65.07 80.37 11.13 73-13.92 24.41-89.05 18.7-3.11V232zm-262.4 101l-64.81 6.75-53.27-7.76-17.55-82.08 143.38-.39 11 30.44zm242.79-1l-53.27 7.76-64.81-6.75-18.8-53 11-30.44 143.38.39zm-180.44-72.46v17.82"/><circle class="cls-2" cx="105.95" cy="241.46" r="2.96"/><circle class="cls-7" cx="95.57" cy="241.46" r="2.96"/><path class="cls-8" d="M326.24 256.67l-23.32 6.48L285.34 230l-159.14-.82L83.47 232v19.17l18.71 3.11 24.33 89.07 73 13.92 80.37-11.13 22.74-65.07 23.58-6.6m-62.35 55.67l-64.81 6.75-53.27-7.76-17.55-82.08 143.38-.39 11 30.44zm62.35-73.49v17.82"/></g></g></svg>